<?xml version="1.0" encoding="UTF-8" standalone="no"?>
<!-- Created with Inkscape (http://www.inkscape.org/) -->

<svg
   version="1.1"
   id="svg1"
   width="804"
   height="400"
   viewBox="0 0 804 400"
   sodipodi:docname="OKClogo_blue.svg"
   inkscape:version="1.3.2 (091e20ef0f, 2023-11-25, custom)"
   xmlns:inkscape="http://www.inkscape.org/namespaces/inkscape"
   xmlns:sodipodi="http://sodipodi.sourceforge.net/DTD/sodipodi-0.dtd"
   xmlns="http://www.w3.org/2000/svg"
   xmlns:svg="http://www.w3.org/2000/svg">
  <defs
     id="defs1">
    <clipPath
       clipPathUnits="userSpaceOnUse"
       id="clipPath2">
      <path
         d="M 0,300 H 603 V 0 H 0 Z"
         transform="translate(-527.52731,-137.9209)"
         id="path2" />
    </clipPath>
    <clipPath
       clipPathUnits="userSpaceOnUse"
       id="clipPath4">
      <path
         d="M 0,300 H 603 V 0 H 0 Z"
         transform="translate(-432.75591,-103.084)"
         id="path4" />
    </clipPath>
    <clipPath
       clipPathUnits="userSpaceOnUse"
       id="clipPath6">
      <path
         d="M 0,300 H 603 V 0 H 0 Z"
         transform="translate(-26.6113,-67.164099)"
         id="path6" />
    </clipPath>
    <clipPath
       clipPathUnits="userSpaceOnUse"
       id="clipPath8">
      <path
         d="M 0,300 H 603 V 0 H 0 Z"
         transform="translate(-160.333,-111.52341)"
         id="path8" />
    </clipPath>
    <clipPath
       clipPathUnits="userSpaceOnUse"
       id="clipPath10">
      <path
         d="M 0,300 H 603 V 0 H 0 Z"
         transform="translate(-83.736302,-108.4932)"
         id="path10" />
    </clipPath>
    <clipPath
       clipPathUnits="userSpaceOnUse"
       id="clipPath12">
      <path
         d="M 0,300 H 603 V 0 H 0 Z"
         transform="translate(-265.9258,-77.119104)"
         id="path12" />
    </clipPath>
    <clipPath
       clipPathUnits="userSpaceOnUse"
       id="clipPath14">
      <path
         d="M 0,300 H 603 V 0 H 0 Z"
         transform="translate(-471.48831,-97.674805)"
         id="path14" />
    </clipPath>
    <clipPath
       clipPathUnits="userSpaceOnUse"
       id="clipPath16">
      <path
         d="M 0,300 H 603 V 0 H 0 Z"
         transform="translate(-203.3926,-97.0273)"
         id="path16" />
    </clipPath>
    <clipPath
       clipPathUnits="userSpaceOnUse"
       id="clipPath18">
      <path
         d="M 0,300 H 603 V 0 H 0 Z"
         transform="translate(-304.83591,-48.809604)"
         id="path18" />
    </clipPath>
    <clipPath
       clipPathUnits="userSpaceOnUse"
       id="clipPath20">
      <path
         d="M 0,300 H 603 V 0 H 0 Z"
         transform="translate(-220.2334,-41.453101)"
         id="path20" />
    </clipPath>
    <clipPath
       clipPathUnits="userSpaceOnUse"
       id="clipPath22">
      <path
         d="M 0,300 H 603 V 0 H 0 Z"
         transform="translate(-276.92191,-45.996099)"
         id="path22" />
    </clipPath>
    <clipPath
       clipPathUnits="userSpaceOnUse"
       id="clipPath24">
      <path
         d="M 0,300 H 603 V 0 H 0 Z"
         transform="translate(-328.85551,-46.212901)"
         id="path24" />
    </clipPath>
    <clipPath
       clipPathUnits="userSpaceOnUse"
       id="clipPath26">
      <path
         d="M 0,300 H 603 V 0 H 0 Z"
         transform="translate(-362.17381,-45.346704)"
         id="path26" />
    </clipPath>
    <clipPath
       clipPathUnits="userSpaceOnUse"
       id="clipPath28">
      <path
         d="M 0,300 H 603 V 0 H 0 Z"
         transform="translate(-238.62301,-39.937501)"
         id="path28" />
    </clipPath>
    <clipPath
       clipPathUnits="userSpaceOnUse"
       id="clipPath34">
      <path
         d="M 0,300 H 603 V 0 H 0 Z"
         transform="translate(-221.80371,-212.49711)"
         id="path34" />
    </clipPath>
    <clipPath
       clipPathUnits="userSpaceOnUse"
       id="clipPath36">
      <path
         d="M 0,300 H 603 V 0 H 0 Z"
         transform="translate(-304.32321,-207.01071)"
         id="path36" />
    </clipPath>
    <clipPath
       clipPathUnits="userSpaceOnUse"
       id="clipPath38">
      <path
         d="M 0,300 H 603 V 0 H 0 Z"
         transform="translate(-296.27251,-214.9639)"
         id="path38" />
    </clipPath>
    <clipPath
       clipPathUnits="userSpaceOnUse"
       id="clipPath40">
      <path
         d="M 0,300 H 603 V 0 H 0 Z"
         transform="translate(-286.3135,-213.1177)"
         id="path40" />
    </clipPath>
    <clipPath
       clipPathUnits="userSpaceOnUse"
       id="clipPath42">
      <path
         d="M 0,300 H 603 V 0 H 0 Z"
         transform="translate(-286.3252,-213.28911)"
         id="path42" />
    </clipPath>
    <clipPath
       clipPathUnits="userSpaceOnUse"
       id="clipPath44">
      <path
         d="M 0,300 H 603 V 0 H 0 Z"
         transform="translate(-285.6865,-209.6626)"
         id="path44" />
    </clipPath>
    <clipPath
       clipPathUnits="userSpaceOnUse"
       id="clipPath46">
      <path
         d="M 0,300 H 603 V 0 H 0 Z"
         transform="translate(-305.23731,-215.79591)"
         id="path46" />
    </clipPath>
    <clipPath
       clipPathUnits="userSpaceOnUse"
       id="clipPath48">
      <path
         d="M 0,300 H 603 V 0 H 0 Z"
         transform="translate(-278.85351,-220.5034)"
         id="path48" />
    </clipPath>
  </defs>
  <sodipodi:namedview
     id="namedview1"
     pagecolor="#505050"
     bordercolor="#eeeeee"
     borderopacity="1"
     inkscape:showpageshadow="0"
     inkscape:pageopacity="0"
     inkscape:pagecheckerboard="0"
     inkscape:deskcolor="#d1d1d1"
     inkscape:zoom="1.073577"
     inkscape:cx="585.42613"
     inkscape:cy="219.36015"
     inkscape:window-width="1910"
     inkscape:window-height="1010"
     inkscape:window-x="0"
     inkscape:window-y="0"
     inkscape:window-maximized="0"
     inkscape:current-layer="layer-MC2">
    <inkscape:page
       x="0"
       y="0"
       inkscape:label="1"
       id="page1"
       width="804"
       height="400"
       margin="33.566399 28.361334 11.672 19.732401"
       bleed="0" />
  </sodipodi:namedview>
  <g
     id="layer-MC0"
     inkscape:groupmode="layer"
     inkscape:label="signature">
    <path
       id="path1"
       d="M 0,0 C -0.592,8.632 13.291,16.313 14.036,4.726 14.422,-1.347 3.688,-4.176 0,0 -0.364,5.283 1.506,-1.707 0,0"
       style="fill:#0d254d;fill-opacity:1;fill-rule:evenodd;stroke:none"
       transform="matrix(1.3333333,0,0,-1.3333333,703.36973,216.10547)"
       clip-path="url(#clipPath2)" />
    <path
       id="path3"
       d="M 0,0 C 2.002,1.218 34.236,22.111 26.181,26.614 14.691,33.025 -21.918,-4.139 -12.119,-8.655 -8.442,-4.836 -4.845,-2.945 0,0 1.362,0.829 -2.304,-1.397 0,0 m -91.528,-7.789 c 5.007,-1.035 9.651,10.798 13.196,12.552 7.29,3.587 13.888,9.295 21.426,12.546 4.812,2.084 9.192,4.305 14.496,5.41 3.038,0.635 32.023,0.105 18.5,-8.45 -1.939,-1.229 -9.736,4.202 -13.688,3.716 -8.119,-0.996 -13.914,-4.26 -20.173,-8.679 -11.074,-7.816 -33.874,-20.315 -9.309,-29.644 8.42,-3.215 40.629,1.117 45.441,10.818 6.599,13.284 7.719,23.886 22.072,30.942 6.973,3.426 30.676,20.103 31.59,2.379 C 25.928,15.502 18.494,8.751 12.335,0.434 6.307,-0.9 -10.619,-9.681 -13.202,-15.146 c 0.164,-0.559 13.365,-13.196 1.442,-8.851 -9.101,3.32 -5.356,7.719 -14.855,3.659 -9.577,-4.107 -25.377,-8.859 -35.896,-6.588 -5.927,1.279 -11.495,0.824 -16.044,5.198 -2.181,2.1 -3.348,7.317 -5.615,8.962 -10.127,-1.019 -16.429,-24.722 -26.186,-22.72 -6.549,11.532 22.119,49.435 27.697,59.071 7.057,12.171 23.069,20.84 10.386,4.112 -5.145,-6.812 -19.118,-26.947 -19.255,-35.486 1.838,-0.381 0.057,3.539 0,0"
       style="fill:#0d254d;fill-opacity:1;fill-rule:evenodd;stroke:none"
       transform="matrix(1.3333333,0,0,-1.3333333,577.00787,262.55467)"
       clip-path="url(#clipPath4)" />
    <path
       id="path5"
       d="m 0,0 c -10.301,5.389 -13.613,23.611 -10.914,33.58 2.975,10.975 20.201,22.591 29.739,27.008 4.517,2.092 12.863,5.308 17.959,4.759 C 39,63.44 39.821,61.01 39.248,58.057 38.184,51.538 34.29,58.163 32.457,58.639 22.573,61.227 1.854,42.059 -2.699,34.27 -8.83,23.777 -2.594,-0.002 11.686,4.977 c 10.887,3.806 35.125,10.639 39.702,22.432 2.52,6.495 5.539,1.788 4.44,-2.958 C 53.989,16.548 45.23,13.318 38.733,10.386 24.528,4.005 15.434,0.975 0,0 -2.05,1.072 2.216,0.141 0,0"
       style="fill:#0d254d;fill-opacity:1;fill-rule:evenodd;stroke:none"
       transform="matrix(1.3333333,0,0,-1.3333333,35.481733,310.44787)"
       clip-path="url(#clipPath6)" />
    <path
       id="path7"
       d="m 0,0 c -8.864,-1.688 2.182,6.999 -11.538,-1.678 -6.751,-4.27 -14.205,-10.694 -18.104,-17.797 -8.28,-15.069 9.89,-1.482 15.125,-0.687 13.704,2.074 -0.584,-8.069 -0.845,-11.212 -1.068,-12.964 25.847,0.195 24.017,-6.276 -1.608,-5.69 -18.492,-5.877 -22.068,-4.543 -1.45,0.539 -6.376,4.953 -7.372,6.32 -5.153,7.063 -14.932,-4.176 -16.865,6.916 -1.947,11.156 9.051,22.992 17.745,28.09 3.787,2.229 7.363,6.931 11.901,8.222 C -4.222,8.434 7.411,4.487 0,0 -2.761,-0.525 2.044,1.236 0,0"
       style="fill:#0d254d;fill-opacity:1;fill-rule:evenodd;stroke:none"
       transform="matrix(1.3333333,0,0,-1.3333333,213.77733,251.30213)"
       clip-path="url(#clipPath8)" />
    <path
       id="path9"
       d="m 0,0 c 4.836,0.965 16.447,-1.218 21.421,-1.946 8.82,-1.3 9.903,-10.75 8.872,-17.961 -0.938,-6.551 -5.277,-11.242 -11.45,-13.326 -3.653,-1.234 -20.064,0.382 -11.096,2.921 5.613,1.59 10.814,3.629 14.85,8.101 4.083,4.523 2.953,16.351 -4.422,17.019 C 11.524,-4.591 -2.691,-7.744 -7.14,-0.646 -14.398,10.92 -0.647,0.114 0,0 3.973,0.79 -2.354,0.415 0,0"
       style="fill:#0d254d;fill-opacity:1;fill-rule:evenodd;stroke:none"
       transform="matrix(1.3333333,0,0,-1.3333333,111.6484,255.3424)"
       clip-path="url(#clipPath10)" />
    <path
       id="path11"
       d="m 0,0 c -5.364,5.967 2.084,9.527 2.597,14.279 -2.631,5.125 -17.354,2.388 -21.892,5.608 -8.677,6.163 0.336,6.271 5.88,3.049 C -6.98,19.2 10.135,26.38 11.614,15.762 12.206,11.501 5.101,-1.593 0,0 -1.725,1.918 4.602,-1.437 0,0"
       style="fill:#0d254d;fill-opacity:1;fill-rule:evenodd;stroke:none"
       transform="matrix(1.3333333,0,0,-1.3333333,354.56773,297.17453)"
       clip-path="url(#clipPath12)" />
    <path
       id="path13"
       d="M 0,0 C -4.406,-0.418 -10.322,-5.188 -11.252,-9.52 -7.602,-16.459 3.799,-3.896 5.41,-0.647 3.835,0.885 2.034,1.102 0,0 -2.525,-0.24 2.504,0.237 0,0 m 37.65,-0.434 c 17.084,3.453 5.473,-9.744 1.79,-13.673 -8.024,-8.572 13.212,-4.452 15.305,-3.635 9.989,3.898 11.818,6.64 19.388,12.377 3.221,2.44 7.876,2.589 9.83,-1.226 3.355,-6.545 -4.416,-2.797 -5.203,-7.908 2.33,-5.166 19.045,0.901 22.108,4.192 8.014,8.603 10.307,-15.407 9.05,-18.255 -7.766,-3.483 -8.263,1.29 -10.461,6.258 -2.218,5.013 -6.698,0 -9.661,-0.632 -3.418,-0.725 -11.607,-0.459 -15.146,0 -8.125,3.802 -6.086,1.153 -14.062,0 -8.147,-1.188 -18.49,-7.72 -26.403,-1.298 -10.191,8.288 -17.909,-1.517 -32.019,-1.292 -6.572,0.105 -30.946,12.308 -23.339,13.486 3.28,0.508 8.025,11.631 13.381,14.42 5.779,3.008 21.485,7.995 18.827,-4.543 -1.748,-8.239 -18.32,-9.515 -18.61,-14.932 -0.333,-6.16 20.925,-0.803 23.37,-0.43 12.108,1.827 14.391,10.065 21.855,17.091 4.955,1.001 -2.176,-2.046 0,0"
       style="fill:#0d254d;fill-opacity:1;fill-rule:evenodd;stroke:none"
       transform="matrix(1.3333333,0,0,-1.3333333,628.65107,269.76693)"
       clip-path="url(#clipPath14)" />
    <path
       id="path15"
       d="m 0,0 c -5.468,-1.648 -7.861,-0.57 -13.416,-5.185 -4.092,-3.399 -11.445,-13.408 -0.256,-11.041 14.887,3.146 11.492,13.212 27.953,12.977 1.463,-6.31 -11.297,-13.869 2.882,-15.185 8.257,-0.766 24.456,14.667 29.792,10.859 -0.336,-10.154 -19.501,-16.548 -27.505,-16.726 -8.362,-0.187 -11.106,2.082 -17.934,5.906 -5.199,-0.052 -9.285,-2.625 -13.849,-3.893 -13.357,-3.732 -20.288,8.986 -9.522,18.392 C -20.027,-2.306 4.4,11.397 0,0 -1.728,-0.523 2.527,6.543 0,0"
       style="fill:#0d254d;fill-opacity:1;fill-rule:evenodd;stroke:none"
       transform="matrix(1.3333333,0,0,-1.3333333,271.19013,270.63027)"
       clip-path="url(#clipPath16)" />
    <path
       id="path17"
       d="M 0,0 C 1.08,1.085 1.236,4.239 2.813,4.11 V 0.217 c -0.087,-1.356 -0.238,-1.672 0,-2.597 1.104,-0.626 3.645,0.185 4.759,-0.433 V -3.68 c -1.114,-0.618 -3.655,0.194 -4.759,-0.432 0.143,-4.977 -0.291,-10.53 0.214,-15.146 0.024,-0.917 0.584,-1.295 1.299,-1.516 1.662,-0.075 2.465,0.711 3.03,1.732 h 0.65 c -0.531,-2.068 -1.981,-3.212 -3.68,-4.112 -2.411,-0.656 -4.5,0.821 -4.975,2.813 v 0.433 c -0.143,2.383 -0.304,4.747 -0.217,7.356 v 7.143 1.297 C -1.381,-3.474 -3.381,-4.318 -3.896,-3.68 -2.625,-2.425 -1.03,-1.495 0,0"
       style="fill:#0d254d;fill-opacity:1;fill-rule:evenodd;stroke:none"
       transform="matrix(1.3333333,0,0,-1.3333333,406.44787,334.92053)"
       clip-path="url(#clipPath18)" />
    <path
       id="path19"
       d="M 0,0 V -0.433 C -0.396,-0.687 -0.734,-0.998 -1.083,-1.3 h -1.3 c -0.216,0.36 -0.919,0.236 -1.294,0.434 -0.254,0.322 -0.269,0.885 -0.649,1.08 -0.339,0.317 -0.191,1.109 -0.217,1.733 -0.206,1.022 -0.739,1.717 -1.733,1.947 -1.347,0.071 -1.463,0.071 -2.81,0 -1.844,-0.54 -2.843,-1.918 -3.466,-3.68 v -0.431 c -0.111,-0.174 -0.226,-0.35 -0.217,-0.649 -0.469,0.037 -0.094,-0.769 -0.216,-1.083 -0.359,-0.515 -0.359,-2.515 0,-3.03 0.127,-0.38 -0.258,-1.27 0.216,-1.296 0.391,-1.413 0.661,-2.946 1.517,-3.897 0.692,-0.821 1.347,-1.682 2.382,-2.163 1.484,-0.507 4.253,-0.769 5.41,0.217 0.945,0.42 1.548,1.188 2.16,1.946 0.439,0.936 0.677,2.068 1.733,2.38 0.359,-1.656 -0.866,-1.729 -0.65,-3.243 -0.395,-0.328 -0.507,-0.936 -0.866,-1.3 -0.951,-1.139 -2.107,-2.076 -3.243,-3.029 -1.992,-1.466 -6.403,-0.981 -8.009,0.432 -0.988,0.959 -1.918,1.979 -2.811,3.031 -0.528,0.556 -0.596,1.568 -1.083,2.163 -0.554,2.507 -0.734,6.453 0.217,8.655 1.215,2.533 2.953,4.546 5.409,5.843 0.186,-0.039 0.202,0.085 0.217,0.217 0.381,0.198 1.078,0.074 1.3,0.433 h 0.86 2.6 0.866 C -4.802,5.225 -4.675,5.203 -4.543,5.193 -4.279,4.881 -3.798,4.781 -3.249,4.76 -2.071,3.988 -1.12,2.99 -0.217,1.947 0.143,1.588 -0.042,0.677 0,0"
       style="fill:#0d254d;fill-opacity:1;fill-rule:evenodd;stroke:none"
       transform="matrix(1.3333333,0,0,-1.3333333,293.64453,344.7292)"
       clip-path="url(#clipPath20)" />
    <path
       id="path21"
       d="m 0,0 c 1.184,0.695 2.779,0.973 4.76,0.867 1.775,-0.97 3.26,-2.224 3.463,-4.763 0.015,-1.093 0.1,-1.634 0.216,-2.163 0.143,-3.822 -0.288,-8.222 0.217,-11.685 v -0.217 c 0.206,-1.379 1.736,-1.436 3.03,-1.73 -2.475,-0.988 -6.762,-0.161 -9.954,-0.433 -0.121,0.987 0.931,0.803 1.734,0.866 h 0.432 c 0.249,0.544 0.862,0.724 0.862,1.514 v 0.432 c 0.365,3.321 0.365,8.152 0,11.469 -0.127,0.449 0.269,1.422 -0.211,1.514 C 4.38,-4.136 4.311,-3.84 4.332,-3.463 4.163,-2.546 3.323,-2.309 2.816,-1.732 H 2.166 C -0.719,-1.735 -2.398,-2.939 -3.677,-4.543 V -4.76 c -0.358,-3.607 -0.358,-8.726 0,-12.335 -0.079,-1.233 0.37,-1.938 1.3,-2.163 h 0.217 c 0.184,-0.536 1.506,0.064 1.727,-0.433 -2.398,-0.988 -6.62,-0.161 -9.736,-0.433 -0.307,0.316 -0.164,0.686 0.433,0.649 0.904,-0.181 1.025,0.42 1.733,0.434 -0.105,0.682 0.665,0.488 0.433,1.297 v 0.217 c 0.359,4.183 0.359,9.881 0,14.064 0.037,0.186 -0.084,0.204 -0.216,0.217 0.169,0.748 -0.243,0.914 -0.434,1.3 -0.317,-0.119 -1.12,0.251 -1.083,-0.217 -1.357,-0.581 -1.96,0.539 -0.866,1.08 2.341,0.401 3.593,1.892 6.276,1.95 0.116,-1.329 -0.249,-3.133 0.216,-4.113 C -2.44,-2.174 -1.294,-1.014 0,0"
       style="fill:#0d254d;fill-opacity:1;fill-rule:evenodd;stroke:none"
       transform="matrix(1.3333333,0,0,-1.3333333,369.2292,338.67187)"
       clip-path="url(#clipPath22)" />
    <path
       id="path23"
       d="m 0,0 c 0.792,0.068 1.193,0.533 1.943,0.65 1.96,0.295 0.75,-2.573 1.083,-3.896 0.09,-1.051 0.962,0.145 0.867,0.649 1.199,1.179 2.113,2.648 3.893,3.247 h 1.517 c 0.886,-0.484 1.59,-1.154 1.949,-2.166 V -1.732 C 10.93,-2.493 10.697,-3.344 9.952,-3.68 8.198,-4.549 7.792,-2.348 6.271,-2.38 4.633,-2.417 3.813,-4.379 3.026,-6.06 3.17,-9.738 2.741,-13.994 3.243,-17.312 c -0.042,-0.184 0.085,-0.203 0.217,-0.216 -0.058,-0.492 0.053,-0.814 0.433,-0.864 0.127,-1.247 2.023,-0.715 2.593,-1.516 v -0.433 h -9.952 c -0.676,0.79 0.857,0.747 1.3,1.083 0.818,-0.023 1.162,0.423 1.299,1.08 0.185,-0.039 0.201,0.085 0.217,0.217 0.359,4.184 0.359,9.881 0,14.065 v 0.433 c 0.058,1.447 -1.934,1.559 -2.816,0.866 -0.248,-0.036 -0.386,0.048 -0.432,0.217 -0.09,0.452 0.147,0.573 0.215,0.864 0.756,0.328 1.866,0.298 2.383,0.867 C -0.64,-0.66 -0.201,-0.454 0,0"
       style="fill:#0d254d;fill-opacity:1;fill-rule:evenodd;stroke:none"
       transform="matrix(1.3333333,0,0,-1.3333333,438.474,338.3828)"
       clip-path="url(#clipPath24)" />
    <path
       id="path25"
       d="M 0,0 C -1.264,-0.034 -2.695,0.098 -3.244,-0.649 -4.09,-0.959 -4.665,-1.534 -4.977,-2.38 -5.379,-2.984 -5.584,-3.793 -5.838,-4.543 h -0.217 v -0.866 h 0.428 c 2.457,-0.36 6.419,-0.36 8.875,0 C 3.94,-5.713 3.793,-4.115 3.465,-4.11 3.471,-3.601 3.09,-3.474 3.248,-2.813 2.678,-1.36 1.706,-0.317 0,0 M -3.244,1.083 C -1.771,1.698 0.538,1.484 2.599,1.517 2.63,1.114 3.333,1.382 3.465,1.083 4.813,0.341 5.969,-0.597 6.925,-1.73 V -1.946 C 7.411,-2.618 7.543,-3.638 8.008,-4.326 7.971,-4.58 8.056,-4.712 8.225,-4.76 V -6.706 H 7.358 c -2.456,-0.064 -5.309,0.092 -7.142,0 h -0.433 c -2.383,-0.159 -4.855,0.279 -5.621,0 -0.359,-0.235 -0.359,-1.932 0,-2.166 -0.037,-0.251 0.047,-0.383 0.211,-0.431 -0.058,-1.648 0.761,-2.414 1.083,-3.679 0.94,-1.443 2.061,-2.7 3.899,-3.247 h 0.216 c 0.064,-0.292 0.539,-0.179 0.862,-0.216 0.237,-0.357 1.933,-0.357 2.166,0 0.342,0.018 0.824,-0.103 0.866,0.216 h 0.217 c 1.484,0.389 2.339,1.409 3.027,2.597 0.258,0.753 0.395,1.624 1.299,1.73 v -1.08 c -0.137,-1.16 -0.597,-1.999 -1.083,-2.813 -0.851,-0.883 -1.532,-1.929 -2.377,-2.813 -0.75,-0.769 -1.929,-1.105 -3.032,-1.514 H -1.95 c -0.031,0.473 -0.544,0.463 -1.077,0.431 -0.455,0.415 -1.036,0.7 -1.733,0.866 v 0.217 c -1.109,0.549 -1.664,1.65 -2.594,2.379 v 0.217 c -0.534,0.835 -0.808,1.934 -1.3,2.813 -0.248,0.257 -0.242,0.766 -0.216,1.297 -0.106,2.031 -0.275,2.641 0,4.762 -0.042,1.704 0.522,2.792 1.083,3.894 0.428,0.15 0.576,0.578 0.649,1.083 0.809,0.631 1.533,1.352 2.161,2.163 0.534,0.404 1.152,0.727 1.733,1.083"
       style="fill:#0d254d;fill-opacity:1;fill-rule:evenodd;stroke:none"
       transform="matrix(1.3333333,0,0,-1.3333333,482.8984,339.53773)"
       clip-path="url(#clipPath26)" />
    <path
       id="path27"
       d="M 0,0 C 0.084,0.564 0.11,1.188 0.433,1.516 0.623,2.118 0.95,2.583 1.082,3.246 1.727,4.049 2.361,4.854 3.465,5.192 4.289,5.375 5.203,5.476 6.275,5.409 7.998,4.895 9.197,3.856 9.524,1.946 V 1.516 C 9.968,1.328 9.752,0.008 9.524,-0.217 6.566,-0.071 3.031,-0.505 0.433,0 Z M 14.067,-1.297 C 14.696,0.129 13.925,2.018 13.418,3.029 12.408,4.472 11.136,5.652 9.524,6.492 9.043,6.658 8.679,6.946 8.008,6.926 H 4.98 C 3.782,6.896 3.016,6.432 2.165,6.059 0.348,4.775 -1.157,3.178 -2.161,1.083 -2.531,0.657 -2.409,-0.257 -2.811,-0.65 v -1.08 c -0.095,-1.902 -0.095,-2.644 0,-4.546 -0.111,-1.265 0.354,-1.954 0.65,-2.813 1.178,-2.28 2.89,-4.031 5.192,-5.193 1.3,-0.592 4.354,-0.69 5.627,0 1.305,0.716 2.43,1.611 3.46,2.596 v 0.217 c 0.586,0.716 0.95,1.648 1.516,2.38 -0.021,0.671 0.264,1.035 0.433,1.516 v 1.08 c -0.856,-0.224 -0.802,-1.362 -1.299,-1.946 h -0.217 v -0.217 c -0.613,-0.758 -1.215,-1.527 -2.16,-1.947 -0.381,0.016 -0.676,-0.047 -0.867,-0.216 -0.037,-0.251 -0.343,-0.236 -0.649,-0.217 -0.307,-0.36 -2.076,-0.36 -2.383,0 -0.322,0.037 -0.798,-0.076 -0.867,0.217 -0.792,0.29 -1.336,0.827 -2.16,1.083 C 2.529,-9.084 1.816,-8.21 1.299,-7.14 0.787,-6.21 0.443,-5.114 0.433,-3.68 0.264,-3.63 0.185,-3.498 0.216,-3.246 -0.275,-3.017 0.137,-1.887 0,-1.297 c 3.898,0.026 9.472,-0.021 14.067,0"
       style="fill:#0d254d;fill-opacity:1;fill-rule:evenodd;stroke:none"
       transform="matrix(1.3333333,0,0,-1.3333333,318.164,346.75)"
       clip-path="url(#clipPath28)" />
  </g>
  <g
     id="layer-MC1"
     inkscape:groupmode="layer"
     inkscape:label="circle-stars">
    <path
       id="path29"
       d="M 0,0 -0.285,-1.281 -0.563,0 -1.87,0.275 -0.563,0.547 -0.285,1.831 0,0.547 1.306,0.28 Z M 0.706,1.228 -0.296,5.74 -1.268,1.228 -5.853,0.267 -1.268,-0.7 -0.296,-5.185 0.706,-0.7 5.288,0.28 Z"
       style="fill:#0d254d;fill-opacity:1;fill-rule:nonzero;stroke:none"
       transform="matrix(1.3333333,0,0,-1.3333333,349.2252,65.710267)" />
    <path
       id="path30"
       d="M 0,0 -0.476,-2.132 -0.938,0 -3.116,0.457 -0.938,0.914 -0.476,3.059 0,0.914 2.174,0.467 Z m 1.179,2.052 -1.672,7.523 -1.622,-7.523 -7.648,-1.609 7.648,-1.608 1.622,-7.483 1.672,7.483 7.638,1.638 z"
       style="fill:#0d254d;fill-opacity:1;fill-rule:nonzero;stroke:none"
       transform="matrix(1.3333333,0,0,-1.3333333,363.3972,52.330667)" />
    <path
       id="path31"
       d="M 0,0 -0.476,-2.129 -0.938,0 -3.12,0.457 -0.938,0.917 -0.476,3.056 0,0.917 2.176,0.465 Z M 1.175,2.05 -0.494,9.569 -2.113,2.05 -9.76,0.444 l 7.647,-1.609 1.619,-7.485 1.669,7.485 7.644,1.638 z"
       style="fill:#0d254d;fill-opacity:1;fill-rule:nonzero;stroke:none"
       transform="matrix(1.3333333,0,0,-1.3333333,354.43493,186.26173)" />
    <path
       id="path32"
       d="M 0,0 -0.285,-1.279 -0.565,0 -1.87,0.272 -0.565,0.549 -0.285,1.833 0,0.549 1.305,0.28 Z m 0.703,1.228 -0.999,4.514 -0.972,-4.514 -4.586,-0.961 4.586,-0.965 0.972,-4.49 0.999,4.49 4.585,0.983 z"
       style="fill:#0d254d;fill-opacity:1;fill-rule:nonzero;stroke:none"
       transform="matrix(1.3333333,0,0,-1.3333333,436.276,139.6152)" />
    <path
       id="path33"
       d="m 0,0 c 0,40.909 33.908,74.071 75.737,74.071 41.817,0 75.732,-33.162 75.732,-74.071 0,-40.907 -33.915,-74.069 -75.732,-74.069 C 33.908,-74.069 0,-40.907 0,0 Z"
       style="fill:none;stroke:#0d254d;stroke-width:2.116;stroke-linecap:butt;stroke-linejoin:miter;stroke-miterlimit:10;stroke-dasharray:none;stroke-opacity:1"
       transform="matrix(1.3333333,0,0,-1.3333333,295.73827,116.67053)"
       clip-path="url(#clipPath34)" />
  </g>
  <g
     id="layer-MC2"
     inkscape:groupmode="layer"
     inkscape:label="spiral">
    <path
       id="path35"
       d="m 0,0 c -33.769,-7.601 -69.153,16.529 -69.603,52.339 -0.014,1.13 -0.037,1.13 -0.048,0 -0.016,-1.593 -0.02,-3.188 0,-4.781 C -69.193,11.104 -35.474,-14.747 0,-6.762 0.531,-6.642 -0.434,-0.098 0,0"
       style="fill:#0d254d;fill-opacity:1;fill-rule:nonzero;stroke:none"
       transform="matrix(1.3333333,0,0,-1.3333333,405.76427,123.98573)"
       clip-path="url(#clipPath36)" />
    <path
       id="path37"
       d="m 0,0 c 16.569,2.004 32.8,-2.646 45.473,-13.554 5.639,-4.854 10.072,-10.985 13.345,-17.634 1.553,-3.153 2.677,-6.499 3.586,-9.886 0.461,-1.716 0.772,-3.468 1.06,-5.219 0.134,-0.887 0.246,-1.775 0.335,-2.667 0.777,-6.871 0.617,2.854 -0.022,-4.195 -0.203,-2.239 0.202,-4.532 0,-6.762 1.434,15.824 -0.865,31.298 -10.34,44.447 C 41.299,1.373 20.276,9.214 0,6.762 -0.319,6.723 0.218,0.026 0,0"
       style="fill:#0d254d;fill-opacity:1;fill-rule:nonzero;stroke:none"
       transform="matrix(1.3333333,0,0,-1.3333333,395.03,113.38147)"
       clip-path="url(#clipPath38)" />
    <path
       id="path39"
       d="m 0,0 c 7.104,-1.787 12.199,-6.024 14.958,-12.766 1.257,-3.07 1.742,-6.438 1.952,-9.726 -0.329,5.146 -0.283,-1.398 -0.432,-2.595 -0.262,-2.109 -0.694,-4.195 -1.154,-6.268 -4.28,-19.31 -15.532,-37.03 -27.991,-52.069 -1.128,-1.362 1.086,-5.451 0,-6.762 14.416,17.402 27.633,38.87 29.516,61.925 C 18.015,-13.973 16.394,2.64 0,6.762 0.484,6.64 -0.581,0.146 0,0"
       style="fill:#0d254d;fill-opacity:1;fill-rule:nonzero;stroke:none"
       transform="matrix(1.3333333,0,0,-1.3333333,381.75133,115.84307)"
       clip-path="url(#clipPath40)" />
    <path
       id="path41"
       d="m 0,0 c -3.46,7.137 -6.258,15.657 -5.464,23.59 0.754,7.527 3.393,14.768 7.127,21.306 7.779,13.621 21.518,22.851 36.647,26.299 0.537,0.122 -0.44,6.662 0,6.762 C 19.31,73.626 3.892,60.424 -2.79,42.05 -8.281,26.947 -6.926,7.524 0,-6.762 -0.875,-4.958 0.894,-1.844 0,0"
       style="fill:#0d254d;fill-opacity:1;fill-rule:nonzero;stroke:none"
       transform="matrix(1.3333333,0,0,-1.3333333,381.76693,115.61453)"
       clip-path="url(#clipPath42)" />
    <path
       id="path43"
       d="m 0,0 c 13.442,33.355 54.558,45.41 84.384,25.875 -0.997,0.653 1.068,6.062 0,6.762 C 54.558,52.171 13.442,40.117 0,6.762 -0.788,4.806 0.774,1.92 0,0"
       style="fill:#0d254d;fill-opacity:1;fill-rule:nonzero;stroke:none"
       transform="matrix(1.3333333,0,0,-1.3333333,380.91533,120.44987)"
       clip-path="url(#clipPath44)" />
    <path
       id="path45"
       d="m 0,0 c -11.944,-33.941 -52.48,-47.714 -83.127,-29.515 0.951,-0.565 -1.026,-6.152 0,-6.761 C -52.48,-54.476 -11.944,-40.703 0,-6.762 0.711,-4.741 -0.7,-1.988 0,0"
       style="fill:#0d254d;fill-opacity:1;fill-rule:nonzero;stroke:none"
       transform="matrix(1.3333333,0,0,-1.3333333,406.98307,112.27213)"
       clip-path="url(#clipPath46)" />
    <path
       id="path47"
       d="m 0,0 c -3.914,-12.73 5.923,-22.533 18.585,-21.816 5.871,0.333 10.996,2.765 14.479,7.519 3.871,5.283 1.593,11.936 -3.211,15.483 -4.263,3.148 -12.676,2.888 -16.957,-0.073 -4.725,-3.268 -7.325,-9.53 -2.099,-13.75 3.975,-3.212 11.251,-2.737 15.207,0.255 5.611,4.244 2.244,9.889 -3.682,10.826 -2.113,0.335 -5.175,-0.102 -6.787,-1.645 -1.694,-1.621 0.896,-2.57 2.18,-2.773 0.861,-0.456 1.27,-1.218 1.227,-2.288 -1.475,-2.474 -1.307,-2.895 0.501,-1.262 -2.168,1.752 -1.664,4.717 -0.616,6.87 1.675,3.443 5.017,-1.787 5.694,-3.522 0.909,-2.325 0.265,-4.891 -0.677,-7.069 -2.468,-5.7 -7.758,-4.115 -11.343,-0.609 -3.738,3.657 -4.105,9.165 -2.649,13.9 C 10.855,3.311 0.889,2.889 0,0"
       style="fill:#0d254d;fill-opacity:1;fill-rule:nonzero;stroke:none"
       transform="matrix(1.3333333,0,0,-1.3333333,371.80467,105.99547)"
       clip-path="url(#clipPath48)" />
  </g>
</svg>
